<svg width="512" height="512" viewBox="0 0 512 512" fill="none" xmlns="http://www.w3.org/2000/svg">
<g clip-path="url(#clip0_706_1495)">
<path d="M256 512C323.895 512 389.01 485.029 437.019 437.019C485.029 389.01 512 323.895 512 256C512 188.105 485.029 122.99 437.019 74.9807C389.01 26.9714 323.895 0 256 0C188.105 0 122.99 26.9714 74.9807 74.9807C26.9714 122.99 0 188.105 0 256C0 323.895 26.9714 389.01 74.9807 437.019C122.99 485.029 188.105 512 256 512Z" fill="black"/>
<g clip-path="url(#clip1_706_1495)">
<path d="M216 200V224H296V200C296 177.9 278.1 160 256 160C233.9 160 216 177.9 216 200ZM184 224V200C184 160.25 216.25 128 256 128C295.75 128 328 160.25 328 200V224H336C353.65 224 368 238.35 368 256V352C368 369.65 353.65 384 336 384H176C158.35 384 144 369.65 144 352V256C144 238.35 158.35 224 176 224H184Z" fill="white"/>
</g>
</g>
<defs>
<clipPath id="clip0_706_1495">
<rect width="512" height="512" fill="white"/>
</clipPath>
<clipPath id="clip1_706_1495">
<rect width="224" height="256" fill="white" transform="translate(144 128)"/>
</clipPath>
</defs>
</svg>
