<svg width="34" height="25" viewBox="0 0 34 25" fill="none" xmlns="http://www.w3.org/2000/svg">
<rect x="0.666504" width="33.3333" height="25" rx="12.5" fill="#2B546A"/>
<path d="M18.7222 16.0368H12.4722" stroke="#ECEDF3" stroke-width="1.7" stroke-linecap="round" stroke-linejoin="round"/>
<path d="M15.9442 9.37502L21.4998 9.37502" stroke="#ECEDF3" stroke-width="1.7" stroke-linecap="round" stroke-linejoin="round"/>
<path fill-rule="evenodd" clip-rule="evenodd" d="M15.7542 9.26824C15.7542 8.36848 15.0194 7.6389 14.1131 7.6389C13.2069 7.6389 12.472 8.36848 12.472 9.26824C12.472 10.168 13.2069 10.8976 14.1131 10.8976C15.0194 10.8976 15.7542 10.168 15.7542 9.26824Z" stroke="#ECEDF3" stroke-width="1.7" stroke-linecap="round" stroke-linejoin="round"/>
<path fill-rule="evenodd" clip-rule="evenodd" d="M22.1943 16.0096C22.1943 15.1098 21.46 14.3802 20.5537 14.3802C19.6469 14.3802 18.9121 15.1098 18.9121 16.0096C18.9121 16.9093 19.6469 17.6389 20.5537 17.6389C21.46 17.6389 22.1943 16.9093 22.1943 16.0096Z" stroke="#ECEDF3" stroke-width="1.7" stroke-linecap="round" stroke-linejoin="round"/>
</svg>
