<svg width="240" height="215" viewBox="0 0 240 215" fill="none" xmlns="http://www.w3.org/2000/svg">
<g clip-path="url(#clip0_1101_280)">
<path d="M48.0257 13.4886C56.3361 13.4886 64.339 16.414 70.5586 21.7167L110.652 55.9524C113.314 58.2286 116.652 59.3667 119.999 59.3667C123.346 59.3667 126.667 58.2286 129.338 55.9609L169.466 21.7504C175.677 16.4561 183.671 13.5392 191.982 13.5392C201.689 13.5392 210.948 17.5268 217.387 24.4818C223.414 30.9901 226.436 39.353 225.9 48.0363C225.364 56.7196 221.332 64.6863 214.559 70.4611L158.652 118.118C155.648 120.672 153.935 124.348 153.935 128.201L153.917 168.945C153.917 186.902 138.685 201.503 119.964 201.503C110.898 201.503 102.377 198.106 95.9642 191.951C89.5601 185.797 86.0286 177.611 86.0374 168.911L86.055 128.167C86.055 124.314 84.3419 120.647 81.3375 118.084L25.4664 70.3852C18.6933 64.602 14.6699 56.6353 14.1428 47.952C13.6157 39.2687 16.6465 30.9058 22.6728 24.3975C29.1121 17.4509 38.3624 13.4717 48.052 13.4717M48.0257 0C34.7958 0 21.6275 5.21841 12.1399 15.4445C-5.49114 34.455 -3.71661 63.5735 16.093 80.4764L71.9642 128.176L71.9466 168.92C71.9378 194.354 93.4078 214.992 119.929 215H119.947C146.441 215 167.938 194.388 167.947 168.953L167.964 128.209L223.87 80.5523C243.68 63.6578 245.49 34.5477 227.876 15.5203C218.398 5.28585 205.212 0.0590127 191.973 0.0590127C180.641 0.0590127 169.264 3.88641 160.128 11.6761L119.999 45.8866L79.9056 11.6424C70.7607 3.83582 59.3668 0 48.0257 0Z" fill="#F2F2F2"/>
<path d="M191.974 13.5495C201.681 13.5495 210.94 17.5371 217.379 24.4922C223.406 31.0004 226.428 39.3634 225.892 48.0466C225.356 56.7299 221.324 64.6966 214.55 70.4715L158.644 118.128L95.5607 171.897C92.5212 174.485 90.1054 177.52 88.3485 180.85C86.8463 177.158 86.0205 173.137 86.0205 168.921L86.0381 128.177C86.0468 105.736 96.0791 84.3141 113.561 69.4092L169.467 21.7523C175.678 16.458 183.672 13.5411 191.982 13.5411M191.982 0.0524902C180.65 0.0524902 169.274 3.87988 160.138 11.6696L104.231 59.3265C83.7716 76.769 71.9912 101.925 71.9824 128.169L71.9648 168.913C71.9561 193.749 92.4421 213.948 118.094 214.909C101.675 213.425 92.2313 192.771 104.899 181.98L167.982 128.203L223.889 80.5458C243.698 63.6513 245.508 34.5412 227.895 15.5138C218.398 5.28776 205.212 0.0609206 191.974 0.0609206L191.982 0.0524902Z" fill="#F2F2F2"/>
</g>
<defs>
<clipPath id="clip0_1101_280">
<rect width="240" height="215" fill="white"/>
</clipPath>
</defs>
</svg>
