<svg width="396" height="118" viewBox="0 0 396 118" fill="none" xmlns="http://www.w3.org/2000/svg">
<g clip-path="url(#clip0_1134_66)">
<path d="M26.3744 7.71238C30.9222 7.71238 35.2999 9.30885 38.703 12.201L60.6377 30.8805C62.0918 32.1222 63.9171 32.7469 65.7501 32.7469C67.5832 32.7469 69.4007 32.1222 70.8625 30.8882L92.8127 12.2241C96.2081 9.3397 100.586 7.74323 105.134 7.74323C110.447 7.74323 115.513 9.91814 119.032 13.7126C122.327 17.2604 123.982 21.8261 123.688 26.5615C123.394 31.297 121.19 35.6468 117.485 38.7934L86.9036 64.792C85.264 66.1879 84.3204 68.1932 84.3204 70.2909V92.5181C84.3126 102.313 75.975 110.28 65.7347 110.28C60.7769 110.28 56.1131 108.429 52.6017 105.066C49.098 101.711 47.1644 97.2458 47.1722 92.495V70.2678C47.1799 68.1623 46.244 66.1648 44.6043 64.7689L14.0304 38.7549C10.3256 35.6005 8.12129 31.2507 7.83512 26.5153C7.54895 21.7798 9.20411 17.2141 12.4989 13.6664C16.0181 9.87957 21.0841 7.70467 26.3822 7.70467M26.3667 0.354736C19.135 0.354736 11.9343 3.20062 6.74457 8.78441C-2.90019 19.1499 -1.93339 35.0375 8.90246 44.2615L39.4687 70.2832V92.5104C39.4532 106.385 51.2018 117.645 65.7114 117.645H65.7192C80.2134 117.645 91.9774 106.4 91.9774 92.5258V70.2987L122.575 44.3001C133.41 35.0838 134.4 19.2039 124.763 8.82297C119.581 3.23918 112.365 0.385586 105.118 0.385586C98.9151 0.385586 92.6967 2.47565 87.7003 6.72519L65.7501 25.3892L43.8154 6.70977C38.8113 2.45251 32.5774 0.354736 26.3744 0.354736H26.3667Z" fill="#FFB551"/>
<path d="M105.126 7.7511C110.44 7.7511 115.506 9.926 119.025 13.7205C122.32 17.2682 123.975 21.834 123.681 26.5694C123.387 31.3048 121.183 35.6546 117.478 38.8013L86.8962 64.7999L52.3854 94.1302C50.7225 95.5416 49.3999 97.1997 48.4409 99.0122C47.621 96.9992 47.1647 94.8012 47.1647 92.5029V70.2757C47.1802 58.0361 52.6638 46.344 62.2313 38.2152L92.813 12.2243C96.2084 9.33986 100.586 7.74339 105.134 7.74339M105.134 0.385742C98.9309 0.385742 92.7124 2.47581 87.716 6.72535L57.1343 32.7239C45.9427 42.241 39.4999 55.9614 39.4922 70.2757V92.5029C39.4767 106.054 50.6838 117.067 64.7217 117.591C55.7421 116.782 50.5756 105.514 57.5056 99.6291L92.0163 70.2911L122.598 44.2925C133.434 35.0762 134.424 19.1963 124.787 8.81542C119.589 3.23934 112.381 0.385742 105.134 0.385742Z" fill="#FFB551"/>
<path d="M173.946 45.0175H189.848C189.515 45.0869 187.365 45.7502 184.952 51.3031L175.222 73.7771C171.804 81.7363 166.768 87.5592 163.149 88.8934L151.949 82.0679C152.282 82.199 153.759 82.5384 154.161 82.2685C158.183 82.6001 162.283 80.3249 165.771 74.5098L156.242 50.9638C154.092 45.7424 151.276 45.0792 150.805 45.0098H169.452C169.05 45.0792 166.97 45.5419 167.039 48.1564C167.039 48.9585 167.372 49.8994 167.844 51.2337L171.935 62.139L175.895 51.8353C176.498 50.2311 176.831 49.159 176.831 48.2258C176.761 45.5496 174.619 45.0792 173.946 45.0175Z" fill="#634D3A"/>
<path d="M203.669 77.1319C194.21 77.1319 186.901 71.5095 186.901 60.9435C186.901 49.7759 195.285 43.6831 204.273 43.6831C213.732 43.6831 221.312 49.0355 221.312 59.6015C221.312 70.1675 213.6 77.1319 203.669 77.1319ZM203.538 51.1102C200.119 51.1102 197.436 54.3879 197.436 59.4704C197.436 65.1545 200.723 69.6354 204.613 69.6354C207.97 69.6354 210.584 66.2265 210.584 60.9358C210.584 55.3828 207.428 51.1025 203.538 51.1025V51.1102Z" fill="#634D3A"/>
<path d="M260.355 76.1216H242.914C243.385 76.0522 246.201 75.3889 246.201 68.6329V57.3959C246.201 53.4471 244.924 51.5113 242.241 51.5113C239.286 51.5113 237.144 53.7171 237.144 57.3959V68.7023C237.144 75.2578 240.029 76.0599 240.562 76.1293H222.99C223.523 76.0599 226.749 75.4584 226.749 68.5712V55.3906C226.749 49.9071 224.599 49.0356 222.858 49.0356H221.783L236.811 43.3516L236.881 47.5008C239.232 45.2257 243.122 43.6909 246.27 43.6909C252.844 43.6909 256.735 47.3003 256.735 54.9279V68.3089C256.735 75.1961 259.751 76.0676 260.355 76.1371V76.1216Z" fill="#634D3A"/>
<path d="M282.22 77.5947L282.15 73.9853C280.402 75.79 277.053 77.1319 273.426 77.1319C267.253 77.1319 260.347 73.322 260.347 61.8151C260.347 48.9045 269.133 43.822 275.777 43.822C278.329 43.822 280.34 44.2924 281.477 45.0251V42.0173C281.477 35.5928 278.994 34.5902 276.983 34.5902H276.179L291.88 29.1067V65.9643C291.88 71.7178 294.03 72.651 295.971 72.651H296.907L282.212 77.6024L282.22 77.5947ZM281.547 56.1233C281.547 53.1154 280.007 51.1719 277.053 51.1719C273.294 51.1719 271.283 54.9819 271.283 59.6016C271.283 65.0851 273.294 69.3038 276.782 69.3038C279.536 69.3038 281.547 67.4991 281.547 63.8203V56.131V56.1233Z" fill="#634D3A"/>
<path d="M311.27 77.1319C301.81 77.1319 295.708 70.4452 295.708 61.0746C295.708 51.704 301.679 43.6831 311.672 43.6831C319.924 43.6831 325.493 49.3055 325.493 62.3472H305.84L306.041 63.2187C307.248 67.2985 311.54 69.5043 315.902 69.5043C319.592 69.5043 323.621 68.17 326.034 65.5555C324.828 73.3836 319.391 77.1319 311.277 77.1319H311.27ZM311.471 50.3081C308.918 50.3081 306.173 52.6527 305.832 56.532H315.964C315.964 52.1822 313.814 50.3081 311.471 50.3081Z" fill="#634D3A"/>
<path d="M343.537 77.1319C333.947 77.1319 328.78 70.8462 328.78 61.6762C328.78 50.5086 336.43 43.6831 345.084 43.6831C351.991 43.6831 356.493 48.434 356.756 54.7196L347.095 58.4678C347.428 57.7351 347.629 56.7942 347.629 55.7916C347.629 53.1848 346.422 51.1102 343.808 51.1102C340.521 51.1102 338.711 54.6579 338.711 58.6683C338.711 64.2907 341.867 69.5737 347.699 69.5737C350.854 69.5737 354.745 68.1006 357.56 65.1622C356.353 72.5892 349.779 77.1396 343.537 77.1396V77.1319Z" fill="#634D3A"/>
<path d="M376.47 77.1319C367.011 77.1319 359.702 71.5095 359.702 60.9435C359.702 49.7759 368.086 43.6831 377.074 43.6831C386.533 43.6831 394.112 49.0355 394.112 59.6015C394.112 70.1675 386.393 77.1319 376.47 77.1319ZM376.339 51.1102C372.92 51.1102 370.236 54.3879 370.236 59.4704C370.236 65.1545 373.523 69.6354 377.414 69.6354C380.771 69.6354 383.385 66.2265 383.385 60.9358C383.385 55.3828 380.229 51.1025 376.339 51.1025V51.1102Z" fill="#634D3A"/>
</g>
<defs>
<clipPath id="clip0_1134_66">
<rect width="396" height="118" fill="white"/>
</clipPath>
</defs>
</svg>
