<svg width="150" height="135" viewBox="0 0 150 135" fill="none" xmlns="http://www.w3.org/2000/svg">
<g clip-path="url(#clip0_1139_62)">
<path d="M30.0168 8.43038C35.2108 8.43038 40.2126 10.2587 44.0999 13.5729L69.1584 34.9703C70.8221 36.3929 72.9084 37.1042 75.0003 37.1042C77.0922 37.1042 79.1676 36.3929 80.8367 34.9755L105.917 13.594C109.799 10.2851 114.795 8.46199 119.989 8.46199C126.056 8.46199 131.843 10.9542 135.868 15.3011C139.634 19.3688 141.523 24.5956 141.188 30.0227C140.853 35.4498 138.333 40.4289 134.1 44.0382L99.1584 73.8238C97.2807 75.4203 96.21 77.7176 96.21 80.1255L96.1991 105.591C96.1991 116.813 86.6786 125.939 74.9783 125.939C69.3122 125.939 63.9864 123.816 59.9784 119.97C55.9758 116.123 53.7686 111.007 53.7741 105.569L53.7851 80.1044C53.7851 77.6965 52.7144 75.4045 50.8367 73.8027L15.9172 43.9908C11.6841 40.3763 9.16943 35.3971 8.84 29.97C8.51057 24.5429 10.4048 19.3161 14.1713 15.2485C18.1958 10.9068 23.9773 8.41984 30.0333 8.41984M30.0168 0C21.7481 0 13.5179 3.2615 7.58817 9.65279C-3.43123 21.5344 -2.32215 39.7334 10.0589 50.2978L44.9784 80.1097L44.9674 105.575C44.9619 121.471 58.3806 134.37 74.9564 134.375H74.9674C91.5267 134.375 104.962 121.492 104.967 105.596L104.978 80.1308L139.92 50.3452C152.301 39.7861 153.432 21.5923 142.423 9.70021C136.499 3.30366 128.258 0.0368829 119.984 0.0368829C112.901 0.0368829 105.791 2.429 100.081 7.29755L75.0003 28.6791L49.9417 7.27647C44.2262 2.39739 37.105 0 30.0168 0Z" fill="#FFB551"/>
<path d="M119.984 8.46861C126.051 8.46861 131.838 10.9608 135.862 15.3078C139.629 19.3754 141.518 24.6023 141.183 30.0293C140.848 35.4564 138.328 40.4356 134.095 44.0448L99.1531 73.8304L59.726 107.436C57.8262 109.054 56.3164 110.95 55.2183 113.032C54.2794 110.724 53.7633 108.211 53.7633 105.576L53.7743 80.111C53.7798 66.085 60.0499 52.6965 70.976 43.3809L105.917 13.5953C109.799 10.2864 114.795 8.46334 119.989 8.46334M119.989 0.032959C112.907 0.032959 105.797 2.42508 100.086 7.29362L65.1451 37.0792C52.3577 47.9808 44.995 63.7034 44.9895 80.1058L44.9785 105.571C44.973 121.093 57.7768 133.718 73.809 134.318C63.5473 133.391 57.6451 120.482 65.5623 113.738L104.989 80.1269L139.931 50.3413C152.312 39.7822 153.443 21.5884 142.435 9.69628C136.499 3.305 128.258 0.038228 119.984 0.038228L119.989 0.032959Z" fill="#FFB551"/>
</g>
<defs>
<clipPath id="clip0_1139_62">
<rect width="150" height="134.375" fill="white"/>
</clipPath>
</defs>
</svg>
